<?xml version="1.0" encoding="UTF-8"?>
<!DOCTYPE svg PUBLIC "-//W3C//DTD SVG 1.1//EN" "http://www.w3.org/Graphics/SVG/1.1/DTD/svg11.dtd">
<svg xmlns="http://www.w3.org/2000/svg" version="1.1" width="435px" height="438px" style="shape-rendering:geometricPrecision; text-rendering:geometricPrecision; image-rendering:optimizeQuality; fill-rule:evenodd; clip-rule:evenodd" xmlns:xlink="http://www.w3.org/1999/xlink">
<g><path style="opacity:1" fill="#95a2b3" d="M 199.5,-0.5 C 209.5,-0.5 219.5,-0.5 229.5,-0.5C 229.5,-0.166667 229.5,0.166667 229.5,0.5C 217.482,0.357835 205.482,0.691168 193.5,1.5C 195.5,0.833333 197.5,0.166667 199.5,-0.5 Z"/></g>
<g><path style="opacity:1" fill="#344d70" d="M 229.5,0.5 C 254.342,2.04376 278.342,7.3771 301.5,16.5C 309.43,20.4651 317.43,24.4651 325.5,28.5C 325.842,29.3382 326.508,29.6716 327.5,29.5C 334.81,34.4671 342.144,39.4671 349.5,44.5C 354.476,48.4697 359.476,52.4697 364.5,56.5C 365.833,58.5 367.5,60.1667 369.5,61.5C 374.195,66.5261 378.861,71.5261 383.5,76.5C 384.8,79.4323 386.8,81.7656 389.5,83.5C 403.629,102.421 414.629,123.087 422.5,145.5C 423.057,150.165 424.39,154.498 426.5,158.5C 432.336,177.191 434.669,196.357 433.5,216C 433.333,224.833 433.167,233.667 433,242.5C 431.324,252.204 429.49,261.87 427.5,271.5C 425.463,276.617 423.796,281.95 422.5,287.5C 389.787,372.703 328.121,421.203 237.5,433C 192.88,436.513 150.88,427.68 111.5,406.5C 106.87,403.514 102.203,400.514 97.5,397.5C 94.7198,394.936 91.7198,392.603 88.5,390.5C 83.5,386.5 78.5,382.5 73.5,378.5C 38.4929,346.171 16.1595,306.504 6.5,259.5C 5.91313,253.963 4.91313,248.63 3.5,243.5C 2.87622,234.699 2.54289,225.866 2.5,217C 2.29247,205.955 2.95914,195.121 4.5,184.5C 6.58037,179.145 7.58037,173.478 7.5,167.5C 16.5214,129.786 34.1881,96.7859 60.5,68.5C 60.5,68.1667 60.5,67.8333 60.5,67.5C 67.7301,61.391 74.7301,55.0577 81.5,48.5C 82.1667,48.5 82.5,48.1667 82.5,47.5C 88.5378,43.1546 94.5378,38.8212 100.5,34.5C 106.737,30.552 113.071,26.8853 119.5,23.5C 126.691,20.4032 133.691,17.0699 140.5,13.5C 157.855,8.07765 175.522,4.07765 193.5,1.5C 205.482,0.691168 217.482,0.357835 229.5,0.5 Z"/></g>
<g><path style="opacity:1" fill="#f8f8f8" d="M -0.5,-0.5 C 66.1667,-0.5 132.833,-0.5 199.5,-0.5C 197.5,0.166667 195.5,0.833333 193.5,1.5C 175.522,4.07765 157.855,8.07765 140.5,13.5C 139.539,11.7354 139.205,9.73535 139.5,7.5C 136.167,7.5 132.833,7.5 129.5,7.5C 129.5,10.5 129.5,13.5 129.5,16.5C 126.167,16.5 122.833,16.5 119.5,16.5C 119.5,13.5 119.5,10.5 119.5,7.5C 116.167,7.5 112.833,7.5 109.5,7.5C 109.5,10.5 109.5,13.5 109.5,16.5C 106.167,16.5 102.833,16.5 99.5,16.5C 99.5,13.5 99.5,10.5 99.5,7.5C 96.1667,7.5 92.8333,7.5 89.5,7.5C 89.5,10.5 89.5,13.5 89.5,16.5C 86.1667,16.5 82.8333,16.5 79.5,16.5C 79.5,13.5 79.5,10.5 79.5,7.5C 76.1667,7.5 72.8333,7.5 69.5,7.5C 69.5,10.5 69.5,13.5 69.5,16.5C 66.1667,16.5 62.8333,16.5 59.5,16.5C 59.5,13.5 59.5,10.5 59.5,7.5C 56.1667,7.5 52.8333,7.5 49.5,7.5C 49.5,10.5 49.5,13.5 49.5,16.5C 46.1667,16.5 42.8333,16.5 39.5,16.5C 39.5,13.5 39.5,10.5 39.5,7.5C 36.1667,7.5 32.8333,7.5 29.5,7.5C 29.5,10.5 29.5,13.5 29.5,16.5C 26.1667,16.5 22.8333,16.5 19.5,16.5C 19.5,13.5 19.5,10.5 19.5,7.5C 16.1667,7.5 12.8333,7.5 9.5,7.5C 9.5,10.5 9.5,13.5 9.5,16.5C 6.16667,16.5 2.83333,16.5 -0.5,16.5C -0.5,10.8333 -0.5,5.16667 -0.5,-0.5 Z"/></g>
<g><path style="opacity:1" fill="#f7f7f8" d="M 229.5,0.5 C 229.5,0.166667 229.5,-0.166667 229.5,-0.5C 297.833,-0.5 366.167,-0.5 434.5,-0.5C 434.5,2.16667 434.5,4.83333 434.5,7.5C 432.833,7.5 431.167,7.5 429.5,7.5C 429.5,10.5 429.5,13.5 429.5,16.5C 426.167,16.5 422.833,16.5 419.5,16.5C 419.5,13.5 419.5,10.5 419.5,7.5C 416.167,7.5 412.833,7.5 409.5,7.5C 409.5,10.5 409.5,13.5 409.5,16.5C 406.167,16.5 402.833,16.5 399.5,16.5C 399.5,13.5 399.5,10.5 399.5,7.5C 396.167,7.5 392.833,7.5 389.5,7.5C 389.5,10.5 389.5,13.5 389.5,16.5C 386.167,16.5 382.833,16.5 379.5,16.5C 379.5,13.5 379.5,10.5 379.5,7.5C 376.167,7.5 372.833,7.5 369.5,7.5C 369.5,10.5 369.5,13.5 369.5,16.5C 366.167,16.5 362.833,16.5 359.5,16.5C 359.5,13.5 359.5,10.5 359.5,7.5C 356.167,7.5 352.833,7.5 349.5,7.5C 349.5,10.5 349.5,13.5 349.5,16.5C 346.167,16.5 342.833,16.5 339.5,16.5C 339.5,13.5 339.5,10.5 339.5,7.5C 336.167,7.5 332.833,7.5 329.5,7.5C 329.5,10.5 329.5,13.5 329.5,16.5C 326.167,16.5 322.833,16.5 319.5,16.5C 319.5,13.5 319.5,10.5 319.5,7.5C 316.167,7.5 312.833,7.5 309.5,7.5C 309.5,10.5 309.5,13.5 309.5,16.5C 306.833,16.5 304.167,16.5 301.5,16.5C 278.342,7.3771 254.342,2.04376 229.5,0.5 Z"/></g>
<g><path style="opacity:1" fill="#efefef" d="M 140.5,13.5 C 133.691,17.0699 126.691,20.4032 119.5,23.5C 119.5,21.5 119.5,19.5 119.5,17.5C 116.167,17.5 112.833,17.5 109.5,17.5C 109.5,20.5 109.5,23.5 109.5,26.5C 106.167,26.5 102.833,26.5 99.5,26.5C 99.5,23.5 99.5,20.5 99.5,17.5C 96.1667,17.5 92.8333,17.5 89.5,17.5C 89.5,20.5 89.5,23.5 89.5,26.5C 86.1667,26.5 82.8333,26.5 79.5,26.5C 79.5,23.5 79.5,20.5 79.5,17.5C 76.1667,17.5 72.8333,17.5 69.5,17.5C 69.5,20.5 69.5,23.5 69.5,26.5C 66.1667,26.5 62.8333,26.5 59.5,26.5C 59.5,23.5 59.5,20.5 59.5,17.5C 56.1667,17.5 52.8333,17.5 49.5,17.5C 49.5,20.5 49.5,23.5 49.5,26.5C 46.1667,26.5 42.8333,26.5 39.5,26.5C 39.5,23.5 39.5,20.5 39.5,17.5C 36.1667,17.5 32.8333,17.5 29.5,17.5C 29.5,20.5 29.5,23.5 29.5,26.5C 26.1667,26.5 22.8333,26.5 19.5,26.5C 19.5,23.5 19.5,20.5 19.5,17.5C 16.1667,17.5 12.8333,17.5 9.5,17.5C 9.5,20.5 9.5,23.5 9.5,26.5C 6.16667,26.5 2.83333,26.5 -0.5,26.5C -0.5,23.1667 -0.5,19.8333 -0.5,16.5C 2.83333,16.5 6.16667,16.5 9.5,16.5C 9.5,13.5 9.5,10.5 9.5,7.5C 12.8333,7.5 16.1667,7.5 19.5,7.5C 19.5,10.5 19.5,13.5 19.5,16.5C 22.8333,16.5 26.1667,16.5 29.5,16.5C 29.5,13.5 29.5,10.5 29.5,7.5C 32.8333,7.5 36.1667,7.5 39.5,7.5C 39.5,10.5 39.5,13.5 39.5,16.5C 42.8333,16.5 46.1667,16.5 49.5,16.5C 49.5,13.5 49.5,10.5 49.5,7.5C 52.8333,7.5 56.1667,7.5 59.5,7.5C 59.5,10.5 59.5,13.5 59.5,16.5C 62.8333,16.5 66.1667,16.5 69.5,16.5C 69.5,13.5 69.5,10.5 69.5,7.5C 72.8333,7.5 76.1667,7.5 79.5,7.5C 79.5,10.5 79.5,13.5 79.5,16.5C 82.8333,16.5 86.1667,16.5 89.5,16.5C 89.5,13.5 89.5,10.5 89.5,7.5C 92.8333,7.5 96.1667,7.5 99.5,7.5C 99.5,10.5 99.5,13.5 99.5,16.5C 102.833,16.5 106.167,16.5 109.5,16.5C 109.5,13.5 109.5,10.5 109.5,7.5C 112.833,7.5 116.167,7.5 119.5,7.5C 119.5,10.5 119.5,13.5 119.5,16.5C 122.833,16.5 126.167,16.5 129.5,16.5C 129.5,13.5 129.5,10.5 129.5,7.5C 132.833,7.5 136.167,7.5 139.5,7.5C 139.205,9.73535 139.539,11.7354 140.5,13.5 Z"/></g>
<g><path style="opacity:1" fill="#eff0f0" d="M 434.5,7.5 C 434.5,10.8333 434.5,14.1667 434.5,17.5C 432.833,17.5 431.167,17.5 429.5,17.5C 429.5,20.5 429.5,23.5 429.5,26.5C 426.167,26.5 422.833,26.5 419.5,26.5C 419.5,23.5 419.5,20.5 419.5,17.5C 416.167,17.5 412.833,17.5 409.5,17.5C 409.5,20.5 409.5,23.5 409.5,26.5C 406.167,26.5 402.833,26.5 399.5,26.5C 399.5,23.5 399.5,20.5 399.5,17.5C 396.167,17.5 392.833,17.5 389.5,17.5C 389.5,20.5 389.5,23.5 389.5,26.5C 386.167,26.5 382.833,26.5 379.5,26.5C 379.5,23.5 379.5,20.5 379.5,17.5C 376.167,17.5 372.833,17.5 369.5,17.5C 369.5,20.5 369.5,23.5 369.5,26.5C 366.167,26.5 362.833,26.5 359.5,26.5C 359.5,23.5 359.5,20.5 359.5,17.5C 356.167,17.5 352.833,17.5 349.5,17.5C 349.5,20.5 349.5,23.5 349.5,26.5C 346.167,26.5 342.833,26.5 339.5,26.5C 339.5,23.5 339.5,20.5 339.5,17.5C 336.167,17.5 332.833,17.5 329.5,17.5C 329.5,20.5 329.5,23.5 329.5,26.5C 327.801,26.3398 326.134,26.5065 324.5,27C 325.056,27.3826 325.389,27.8826 325.5,28.5C 317.43,24.4651 309.43,20.4651 301.5,16.5C 304.167,16.5 306.833,16.5 309.5,16.5C 309.5,13.5 309.5,10.5 309.5,7.5C 312.833,7.5 316.167,7.5 319.5,7.5C 319.5,10.5 319.5,13.5 319.5,16.5C 322.833,16.5 326.167,16.5 329.5,16.5C 329.5,13.5 329.5,10.5 329.5,7.5C 332.833,7.5 336.167,7.5 339.5,7.5C 339.5,10.5 339.5,13.5 339.5,16.5C 342.833,16.5 346.167,16.5 349.5,16.5C 349.5,13.5 349.5,10.5 349.5,7.5C 352.833,7.5 356.167,7.5 359.5,7.5C 359.5,10.5 359.5,13.5 359.5,16.5C 362.833,16.5 366.167,16.5 369.5,16.5C 369.5,13.5 369.5,10.5 369.5,7.5C 372.833,7.5 376.167,7.5 379.5,7.5C 379.5,10.5 379.5,13.5 379.5,16.5C 382.833,16.5 386.167,16.5 389.5,16.5C 389.5,13.5 389.5,10.5 389.5,7.5C 392.833,7.5 396.167,7.5 399.5,7.5C 399.5,10.5 399.5,13.5 399.5,16.5C 402.833,16.5 406.167,16.5 409.5,16.5C 409.5,13.5 409.5,10.5 409.5,7.5C 412.833,7.5 416.167,7.5 419.5,7.5C 419.5,10.5 419.5,13.5 419.5,16.5C 422.833,16.5 426.167,16.5 429.5,16.5C 429.5,13.5 429.5,10.5 429.5,7.5C 431.167,7.5 432.833,7.5 434.5,7.5 Z"/></g>
<g><path style="opacity:1" fill="#fcfdfd" d="M 119.5,23.5 C 113.071,26.8853 106.737,30.552 100.5,34.5C 99.5318,32.3926 99.1984,30.0593 99.5,27.5C 96.1667,27.5 92.8333,27.5 89.5,27.5C 89.5,30.5 89.5,33.5 89.5,36.5C 86.1667,36.5 82.8333,36.5 79.5,36.5C 79.5,33.5 79.5,30.5 79.5,27.5C 76.1667,27.5 72.8333,27.5 69.5,27.5C 69.5,30.5 69.5,33.5 69.5,36.5C 66.1667,36.5 62.8333,36.5 59.5,36.5C 59.5,33.5 59.5,30.5 59.5,27.5C 56.1667,27.5 52.8333,27.5 49.5,27.5C 49.5,30.5 49.5,33.5 49.5,36.5C 46.1667,36.5 42.8333,36.5 39.5,36.5C 39.5,33.5 39.5,30.5 39.5,27.5C 36.1667,27.5 32.8333,27.5 29.5,27.5C 29.5,30.5 29.5,33.5 29.5,36.5C 26.1667,36.5 22.8333,36.5 19.5,36.5C 19.5,33.5 19.5,30.5 19.5,27.5C 16.1667,27.5 12.8333,27.5 9.5,27.5C 9.5,30.5 9.5,33.5 9.5,36.5C 6.16667,36.5 2.83333,36.5 -0.5,36.5C -0.5,33.1667 -0.5,29.8333 -0.5,26.5C 2.83333,26.5 6.16667,26.5 9.5,26.5C 9.5,23.5 9.5,20.5 9.5,17.5C 12.8333,17.5 16.1667,17.5 19.5,17.5C 19.5,20.5 19.5,23.5 19.5,26.5C 22.8333,26.5 26.1667,26.5 29.5,26.5C 29.5,23.5 29.5,20.5 29.5,17.5C 32.8333,17.5 36.1667,17.5 39.5,17.5C 39.5,20.5 39.5,23.5 39.5,26.5C 42.8333,26.5 46.1667,26.5 49.5,26.5C 49.5,23.5 49.5,20.5 49.5,17.5C 52.8333,17.5 56.1667,17.5 59.5,17.5C 59.5,20.5 59.5,23.5 59.5,26.5C 62.8333,26.5 66.1667,26.5 69.5,26.5C 69.5,23.5 69.5,20.5 69.5,17.5C 72.8333,17.5 76.1667,17.5 79.5,17.5C 79.5,20.5 79.5,23.5 79.5,26.5C 82.8333,26.5 86.1667,26.5 89.5,26.5C 89.5,23.5 89.5,20.5 89.5,17.5C 92.8333,17.5 96.1667,17.5 99.5,17.5C 99.5,20.5 99.5,23.5 99.5,26.5C 102.833,26.5 106.167,26.5 109.5,26.5C 109.5,23.5 109.5,20.5 109.5,17.5C 112.833,17.5 116.167,17.5 119.5,17.5C 119.5,19.5 119.5,21.5 119.5,23.5 Z"/></g>
<g><path style="opacity:1" fill="#fdfdfd" d="M 434.5,17.5 C 434.5,20.8333 434.5,24.1667 434.5,27.5C 432.833,27.5 431.167,27.5 429.5,27.5C 429.5,30.5 429.5,33.5 429.5,36.5C 426.167,36.5 422.833,36.5 419.5,36.5C 419.5,33.5 419.5,30.5 419.5,27.5C 416.167,27.5 412.833,27.5 409.5,27.5C 409.5,30.5 409.5,33.5 409.5,36.5C 406.167,36.5 402.833,36.5 399.5,36.5C 399.5,33.5 399.5,30.5 399.5,27.5C 396.167,27.5 392.833,27.5 389.5,27.5C 389.5,30.5 389.5,33.5 389.5,36.5C 386.167,36.5 382.833,36.5 379.5,36.5C 379.5,33.5 379.5,30.5 379.5,27.5C 376.167,27.5 372.833,27.5 369.5,27.5C 369.5,30.5 369.5,33.5 369.5,36.5C 366.167,36.5 362.833,36.5 359.5,36.5C 359.5,33.5 359.5,30.5 359.5,27.5C 356.167,27.5 352.833,27.5 349.5,27.5C 349.5,30.5 349.5,33.5 349.5,36.5C 346.167,36.5 342.833,36.5 339.5,36.5C 339.5,33.5 339.5,30.5 339.5,27.5C 335.258,27.1505 331.258,27.8172 327.5,29.5C 326.508,29.6716 325.842,29.3382 325.5,28.5C 325.389,27.8826 325.056,27.3826 324.5,27C 326.134,26.5065 327.801,26.3398 329.5,26.5C 329.5,23.5 329.5,20.5 329.5,17.5C 332.833,17.5 336.167,17.5 339.5,17.5C 339.5,20.5 339.5,23.5 339.5,26.5C 342.833,26.5 346.167,26.5 349.5,26.5C 349.5,23.5 349.5,20.5 349.5,17.5C 352.833,17.5 356.167,17.5 359.5,17.5C 359.5,20.5 359.5,23.5 359.5,26.5C 362.833,26.5 366.167,26.5 369.5,26.5C 369.5,23.5 369.5,20.5 369.5,17.5C 372.833,17.5 376.167,17.5 379.5,17.5C 379.5,20.5 379.5,23.5 379.5,26.5C 382.833,26.5 386.167,26.5 389.5,26.5C 389.5,23.5 389.5,20.5 389.5,17.5C 392.833,17.5 396.167,17.5 399.5,17.5C 399.5,20.5 399.5,23.5 399.5,26.5C 402.833,26.5 406.167,26.5 409.5,26.5C 409.5,23.5 409.5,20.5 409.5,17.5C 412.833,17.5 416.167,17.5 419.5,17.5C 419.5,20.5 419.5,23.5 419.5,26.5C 422.833,26.5 426.167,26.5 429.5,26.5C 429.5,23.5 429.5,20.5 429.5,17.5C 431.167,17.5 432.833,17.5 434.5,17.5 Z"/></g>
<g><path style="opacity:1" fill="#eff0f0" d="M 100.5,34.5 C 94.5378,38.8212 88.5378,43.1546 82.5,47.5C 81.791,46.596 80.791,46.2627 79.5,46.5C 79.5,43.5 79.5,40.5 79.5,37.5C 76.1667,37.5 72.8333,37.5 69.5,37.5C 69.5,40.5 69.5,43.5 69.5,46.5C 66.1667,46.5 62.8333,46.5 59.5,46.5C 59.5,43.5 59.5,40.5 59.5,37.5C 56.1667,37.5 52.8333,37.5 49.5,37.5C 49.5,40.5 49.5,43.5 49.5,46.5C 46.1667,46.5 42.8333,46.5 39.5,46.5C 39.5,43.5 39.5,40.5 39.5,37.5C 36.1667,37.5 32.8333,37.5 29.5,37.5C 29.5,40.5 29.5,43.5 29.5,46.5C 26.1667,46.5 22.8333,46.5 19.5,46.5C 19.5,43.5 19.5,40.5 19.5,37.5C 16.1667,37.5 12.8333,37.5 9.5,37.5C 9.5,40.5 9.5,43.5 9.5,46.5C 6.16667,46.5 2.83333,46.5 -0.5,46.5C -0.5,43.1667 -0.5,39.8333 -0.5,36.5C 2.83333,36.5 6.16667,36.5 9.5,36.5C 9.5,33.5 9.5,30.5 9.5,27.5C 12.8333,27.5 16.1667,27.5 19.5,27.5C 19.5,30.5 19.5,33.5 19.5,36.5C 22.8333,36.5 26.1667,36.5 29.5,36.5C 29.5,33.5 29.5,30.5 29.5,27.5C 32.8333,27.5 36.1667,27.5 39.5,27.5C 39.5,30.5 39.5,33.5 39.5,36.5C 42.8333,36.5 46.1667,36.5 49.5,36.5C 49.5,33.5 49.5,30.5 49.5,27.5C 52.8333,27.5 56.1667,27.5 59.5,27.5C 59.5,30.5 59.5,33.5 59.5,36.5C 62.8333,36.5 66.1667,36.5 69.5,36.5C 69.5,33.5 69.5,30.5 69.5,27.5C 72.8333,27.5 76.1667,27.5 79.5,27.5C 79.5,30.5 79.5,33.5 79.5,36.5C 82.8333,36.5 86.1667,36.5 89.5,36.5C 89.5,33.5 89.5,30.5 89.5,27.5C 92.8333,27.5 96.1667,27.5 99.5,27.5C 99.1984,30.0593 99.5318,32.3926 100.5,34.5 Z"/></g>
<g><path style="opacity:1" fill="#efefef" d="M 434.5,27.5 C 434.5,30.8333 434.5,34.1667 434.5,37.5C 432.833,37.5 431.167,37.5 429.5,37.5C 429.5,40.5 429.5,43.5 429.5,46.5C 426.167,46.5 422.833,46.5 419.5,46.5C 419.5,43.5 419.5,40.5 419.5,37.5C 416.167,37.5 412.833,37.5 409.5,37.5C 409.5,40.5 409.5,43.5 409.5,46.5C 406.167,46.5 402.833,46.5 399.5,46.5C 399.5,43.5 399.5,40.5 399.5,37.5C 396.167,37.5 392.833,37.5 389.5,37.5C 389.5,40.5 389.5,43.5 389.5,46.5C 386.167,46.5 382.833,46.5 379.5,46.5C 379.5,43.5 379.5,40.5 379.5,37.5C 376.167,37.5 372.833,37.5 369.5,37.5C 369.5,40.5 369.5,43.5 369.5,46.5C 366.167,46.5 362.833,46.5 359.5,46.5C 359.5,43.5 359.5,40.5 359.5,37.5C 356.167,37.5 352.833,37.5 349.5,37.5C 349.5,39.8333 349.5,42.1667 349.5,44.5C 342.144,39.4671 334.81,34.4671 327.5,29.5C 331.258,27.8172 335.258,27.1505 339.5,27.5C 339.5,30.5 339.5,33.5 339.5,36.5C 342.833,36.5 346.167,36.5 349.5,36.5C 349.5,33.5 349.5,30.5 349.5,27.5C 352.833,27.5 356.167,27.5 359.5,27.5C 359.5,30.5 359.5,33.5 359.5,36.5C 362.833,36.5 366.167,36.5 369.5,36.5C 369.5,33.5 369.5,30.5 369.5,27.5C 372.833,27.5 376.167,27.5 379.5,27.5C 379.5,30.5 379.5,33.5 379.5,36.5C 382.833,36.5 386.167,36.5 389.5,36.5C 389.5,33.5 389.5,30.5 389.5,27.5C 392.833,27.5 396.167,27.5 399.5,27.5C 399.5,30.5 399.5,33.5 399.5,36.5C 402.833,36.5 406.167,36.5 409.5,36.5C 409.5,33.5 409.5,30.5 409.5,27.5C 412.833,27.5 416.167,27.5 419.5,27.5C 419.5,30.5 419.5,33.5 419.5,36.5C 422.833,36.5 426.167,36.5 429.5,36.5C 429.5,33.5 429.5,30.5 429.5,27.5C 431.167,27.5 432.833,27.5 434.5,27.5 Z"/></g>
<g><path style="opacity:1" fill="#fdfdfd" d="M 82.5,47.5 C 82.5,48.1667 82.1667,48.5 81.5,48.5C 77.7016,47.5166 73.7016,47.1832 69.5,47.5C 69.5,50.5 69.5,53.5 69.5,56.5C 66.1667,56.5 62.8333,56.5 59.5,56.5C 59.5,53.5 59.5,50.5 59.5,47.5C 56.1667,47.5 52.8333,47.5 49.5,47.5C 49.5,50.5 49.5,53.5 49.5,56.5C 46.1667,56.5 42.8333,56.5 39.5,56.5C 39.5,53.5 39.5,50.5 39.5,47.5C 36.1667,47.5 32.8333,47.5 29.5,47.5C 29.5,50.5 29.5,53.5 29.5,56.5C 26.1667,56.5 22.8333,56.5 19.5,56.5C 19.5,53.5 19.5,50.5 19.5,47.5C 16.1667,47.5 12.8333,47.5 9.5,47.5C 9.5,50.5 9.5,53.5 9.5,56.5C 6.16667,56.5 2.83333,56.5 -0.5,56.5C -0.5,53.1667 -0.5,49.8333 -0.5,46.5C 2.83333,46.5 6.16667,46.5 9.5,46.5C 9.5,43.5 9.5,40.5 9.5,37.5C 12.8333,37.5 16.1667,37.5 19.5,37.5C 19.5,40.5 19.5,43.5 19.5,46.5C 22.8333,46.5 26.1667,46.5 29.5,46.5C 29.5,43.5 29.5,40.5 29.5,37.5C 32.8333,37.5 36.1667,37.5 39.5,37.5C 39.5,40.5 39.5,43.5 39.5,46.5C 42.8333,46.5 46.1667,46.5 49.5,46.5C 49.5,43.5 49.5,40.5 49.5,37.5C 52.8333,37.5 56.1667,37.5 59.5,37.5C 59.5,40.5 59.5,43.5 59.5,46.5C 62.8333,46.5 66.1667,46.5 69.5,46.5C 69.5,43.5 69.5,40.5 69.5,37.5C 72.8333,37.5 76.1667,37.5 79.5,37.5C 79.5,40.5 79.5,43.5 79.5,46.5C 80.791,46.2627 81.791,46.596 82.5,47.5 Z"/></g>
<g><path style="opacity:1" fill="#fcfcfc" d="M 434.5,37.5 C 434.5,40.8333 434.5,44.1667 434.5,47.5C 432.833,47.5 431.167,47.5 429.5,47.5C 429.5,50.5 429.5,53.5 429.5,56.5C 426.167,56.5 422.833,56.5 419.5,56.5C 419.5,53.5 419.5,50.5 419.5,47.5C 416.167,47.5 412.833,47.5 409.5,47.5C 409.5,50.5 409.5,53.5 409.5,56.5C 406.167,56.5 402.833,56.5 399.5,56.5C 399.5,53.5 399.5,50.5 399.5,47.5C 396.167,47.5 392.833,47.5 389.5,47.5C 389.5,50.5 389.5,53.5 389.5,56.5C 386.167,56.5 382.833,56.5 379.5,56.5C 379.5,53.5 379.5,50.5 379.5,47.5C 376.167,47.5 372.833,47.5 369.5,47.5C 369.5,50.5 369.5,53.5 369.5,56.5C 367.833,56.5 366.167,56.5 364.5,56.5C 359.476,52.4697 354.476,48.4697 349.5,44.5C 349.5,42.1667 349.5,39.8333 349.5,37.5C 352.833,37.5 356.167,37.5 359.5,37.5C 359.5,40.5 359.5,43.5 359.5,46.5C 362.833,46.5 366.167,46.5 369.5,46.5C 369.5,43.5 369.5,40.5 369.5,37.5C 372.833,37.5 376.167,37.5 379.5,37.5C 379.5,40.5 379.5,43.5 379.5,46.5C 382.833,46.5 386.167,46.5 389.5,46.5C 389.5,43.5 389.5,40.5 389.5,37.5C 392.833,37.5 396.167,37.5 399.5,37.5C 399.5,40.5 399.5,43.5 399.5,46.5C 402.833,46.5 406.167,46.5 409.5,46.5C 409.5,43.5 409.5,40.5 409.5,37.5C 412.833,37.5 416.167,37.5 419.5,37.5C 419.5,40.5 419.5,43.5 419.5,46.5C 422.833,46.5 426.167,46.5 429.5,46.5C 429.5,43.5 429.5,40.5 429.5,37.5C 431.167,37.5 432.833,37.5 434.5,37.5 Z"/></g>
<g><path style="opacity:1" fill="#efeff0" d="M 81.5,48.5 C 74.7301,55.0577 67.7301,61.391 60.5,67.5C 59.5863,64.272 59.2529,60.9387 59.5,57.5C 56.1667,57.5 52.8333,57.5 49.5,57.5C 49.5,60.5 49.5,63.5 49.5,66.5C 46.1667,66.5 42.8333,66.5 39.5,66.5C 39.5,63.5 39.5,60.5 39.5,57.5C 36.1667,57.5 32.8333,57.5 29.5,57.5C 29.5,60.5 29.5,63.5 29.5,66.5C 26.1667,66.5 22.8333,66.5 19.5,66.5C 19.5,63.5 19.5,60.5 19.5,57.5C 16.1667,57.5 12.8333,57.5 9.5,57.5C 9.5,60.5 9.5,63.5 9.5,66.5C 6.16667,66.5 2.83333,66.5 -0.5,66.5C -0.5,63.1667 -0.5,59.8333 -0.5,56.5C 2.83333,56.5 6.16667,56.5 9.5,56.5C 9.5,53.5 9.5,50.5 9.5,47.5C 12.8333,47.5 16.1667,47.5 19.5,47.5C 19.5,50.5 19.5,53.5 19.5,56.5C 22.8333,56.5 26.1667,56.5 29.5,56.5C 29.5,53.5 29.5,50.5 29.5,47.5C 32.8333,47.5 36.1667,47.5 39.5,47.5C 39.5,50.5 39.5,53.5 39.5,56.5C 42.8333,56.5 46.1667,56.5 49.5,56.5C 49.5,53.5 49.5,50.5 49.5,47.5C 52.8333,47.5 56.1667,47.5 59.5,47.5C 59.5,50.5 59.5,53.5 59.5,56.5C 62.8333,56.5 66.1667,56.5 69.5,56.5C 69.5,53.5 69.5,50.5 69.5,47.5C 73.7016,47.1832 77.7016,47.5166 81.5,48.5 Z"/></g>
<g><path style="opacity:1" fill="#f0f0f0" d="M 434.5,47.5 C 434.5,50.8333 434.5,54.1667 434.5,57.5C 432.833,57.5 431.167,57.5 429.5,57.5C 429.5,60.5 429.5,63.5 429.5,66.5C 426.167,66.5 422.833,66.5 419.5,66.5C 419.5,63.5 419.5,60.5 419.5,57.5C 416.167,57.5 412.833,57.5 409.5,57.5C 409.5,60.5 409.5,63.5 409.5,66.5C 406.167,66.5 402.833,66.5 399.5,66.5C 399.5,63.5 399.5,60.5 399.5,57.5C 396.167,57.5 392.833,57.5 389.5,57.5C 389.5,60.5 389.5,63.5 389.5,66.5C 386.167,66.5 382.833,66.5 379.5,66.5C 379.5,63.5 379.5,60.5 379.5,57.5C 376.167,57.5 372.833,57.5 369.5,57.5C 369.5,58.8333 369.5,60.1667 369.5,61.5C 367.5,60.1667 365.833,58.5 364.5,56.5C 366.167,56.5 367.833,56.5 369.5,56.5C 369.5,53.5 369.5,50.5 369.5,47.5C 372.833,47.5 376.167,47.5 379.5,47.5C 379.5,50.5 379.5,53.5 379.5,56.5C 382.833,56.5 386.167,56.5 389.5,56.5C 389.5,53.5 389.5,50.5 389.5,47.5C 392.833,47.5 396.167,47.5 399.5,47.5C 399.5,50.5 399.5,53.5 399.5,56.5C 402.833,56.5 406.167,56.5 409.5,56.5C 409.5,53.5 409.5,50.5 409.5,47.5C 412.833,47.5 416.167,47.5 419.5,47.5C 419.5,50.5 419.5,53.5 419.5,56.5C 422.833,56.5 426.167,56.5 429.5,56.5C 429.5,53.5 429.5,50.5 429.5,47.5C 431.167,47.5 432.833,47.5 434.5,47.5 Z"/></g>
<g><path style="opacity:1" fill="#fdfdfd" d="M 60.5,67.5 C 60.5,67.8333 60.5,68.1667 60.5,68.5C 56.9359,67.5773 53.2693,67.244 49.5,67.5C 49.5,70.5 49.5,73.5 49.5,76.5C 46.1667,76.5 42.8333,76.5 39.5,76.5C 39.5,73.5 39.5,70.5 39.5,67.5C 36.1667,67.5 32.8333,67.5 29.5,67.5C 29.5,70.5 29.5,73.5 29.5,76.5C 26.1667,76.5 22.8333,76.5 19.5,76.5C 19.5,73.5 19.5,70.5 19.5,67.5C 16.1667,67.5 12.8333,67.5 9.5,67.5C 9.5,70.5 9.5,73.5 9.5,76.5C 6.16667,76.5 2.83333,76.5 -0.5,76.5C -0.5,73.1667 -0.5,69.8333 -0.5,66.5C 2.83333,66.5 6.16667,66.5 9.5,66.5C 9.5,63.5 9.5,60.5 9.5,57.5C 12.8333,57.5 16.1667,57.5 19.5,57.5C 19.5,60.5 19.5,63.5 19.5,66.5C 22.8333,66.5 26.1667,66.5 29.5,66.5C 29.5,63.5 29.5,60.5 29.5,57.5C 32.8333,57.5 36.1667,57.5 39.5,57.5C 39.5,60.5 39.5,63.5 39.5,66.5C 42.8333,66.5 46.1667,66.5 49.5,66.5C 49.5,63.5 49.5,60.5 49.5,57.5C 52.8333,57.5 56.1667,57.5 59.5,57.5C 59.2529,60.9387 59.5863,64.272 60.5,67.5 Z"/></g>
<g><path style="opacity:1" fill="#fcfcfc" d="M 434.5,57.5 C 434.5,60.8333 434.5,64.1667 434.5,67.5C 432.833,67.5 431.167,67.5 429.5,67.5C 429.5,70.5 429.5,73.5 429.5,76.5C 426.167,76.5 422.833,76.5 419.5,76.5C 419.5,73.5 419.5,70.5 419.5,67.5C 416.167,67.5 412.833,67.5 409.5,67.5C 409.5,70.5 409.5,73.5 409.5,76.5C 406.167,76.5 402.833,76.5 399.5,76.5C 399.5,73.5 399.5,70.5 399.5,67.5C 396.167,67.5 392.833,67.5 389.5,67.5C 389.5,70.5 389.5,73.5 389.5,76.5C 387.5,76.5 385.5,76.5 383.5,76.5C 378.861,71.5261 374.195,66.5261 369.5,61.5C 369.5,60.1667 369.5,58.8333 369.5,57.5C 372.833,57.5 376.167,57.5 379.5,57.5C 379.5,60.5 379.5,63.5 379.5,66.5C 382.833,66.5 386.167,66.5 389.5,66.5C 389.5,63.5 389.5,60.5 389.5,57.5C 392.833,57.5 396.167,57.5 399.5,57.5C 399.5,60.5 399.5,63.5 399.5,66.5C 402.833,66.5 406.167,66.5 409.5,66.5C 409.5,63.5 409.5,60.5 409.5,57.5C 412.833,57.5 416.167,57.5 419.5,57.5C 419.5,60.5 419.5,63.5 419.5,66.5C 422.833,66.5 426.167,66.5 429.5,66.5C 429.5,63.5 429.5,60.5 429.5,57.5C 431.167,57.5 432.833,57.5 434.5,57.5 Z"/></g>
<g><path style="opacity:1" fill="#eff0f0" d="M 434.5,67.5 C 434.5,70.8333 434.5,74.1667 434.5,77.5C 432.833,77.5 431.167,77.5 429.5,77.5C 429.5,80.5 429.5,83.5 429.5,86.5C 426.167,86.5 422.833,86.5 419.5,86.5C 419.5,83.5 419.5,80.5 419.5,77.5C 416.167,77.5 412.833,77.5 409.5,77.5C 409.5,80.5 409.5,83.5 409.5,86.5C 406.167,86.5 402.833,86.5 399.5,86.5C 399.5,83.5 399.5,80.5 399.5,77.5C 396.167,77.5 392.833,77.5 389.5,77.5C 389.5,79.5 389.5,81.5 389.5,83.5C 386.8,81.7656 384.8,79.4323 383.5,76.5C 385.5,76.5 387.5,76.5 389.5,76.5C 389.5,73.5 389.5,70.5 389.5,67.5C 392.833,67.5 396.167,67.5 399.5,67.5C 399.5,70.5 399.5,73.5 399.5,76.5C 402.833,76.5 406.167,76.5 409.5,76.5C 409.5,73.5 409.5,70.5 409.5,67.5C 412.833,67.5 416.167,67.5 419.5,67.5C 419.5,70.5 419.5,73.5 419.5,76.5C 422.833,76.5 426.167,76.5 429.5,76.5C 429.5,73.5 429.5,70.5 429.5,67.5C 431.167,67.5 432.833,67.5 434.5,67.5 Z"/></g>
<g><path style="opacity:1" fill="#fdfdfe" d="M 247.5,87.5 C 255.302,89.2447 263.302,90.5781 271.5,91.5C 288.73,95.2772 304.73,102.111 319.5,112C 338.167,128.667 338.167,145.333 319.5,162C 299.458,175.127 277.458,183.127 253.5,186C 233.814,188.415 214.148,188.915 194.5,187.5C 186.347,185.864 178.014,184.531 169.5,183.5C 151.415,180.42 134.748,173.92 119.5,164C 96.8333,146 96.8333,128 119.5,110C 133.47,101.181 148.47,95.0139 164.5,91.5C 167.495,91.7062 170.162,91.0395 172.5,89.5C 197.402,85.1376 222.402,84.4709 247.5,87.5 Z"/></g>
<g><path style="opacity:1" fill="#8a98ac" d="M 247.5,87.5 C 255.834,87.6398 263.834,88.9731 271.5,91.5C 263.302,90.5781 255.302,89.2447 247.5,87.5 Z"/></g>
<g><path style="opacity:1" fill="#8e9cb0" d="M 172.5,89.5 C 170.162,91.0395 167.495,91.7062 164.5,91.5C 166.905,90.2318 169.572,89.5651 172.5,89.5 Z"/></g>
<g><path style="opacity:1" fill="#8190a6" d="M 422.5,145.5 C 424.61,149.502 425.943,153.835 426.5,158.5C 424.39,154.498 423.057,150.165 422.5,145.5 Z"/></g>
<g><path style="opacity:1" fill="#b7c1cd" d="M 104.5,159.5 C 103.505,171.322 103.172,183.322 103.5,195.5C 102.34,182.673 102.173,169.673 103,156.5C 104.039,157.244 104.539,158.244 104.5,159.5 Z"/></g>
<g><path style="opacity:1" fill="#fcfdfd" d="M 332.5,157.5 C 333.495,169.989 333.829,182.656 333.5,195.5C 331.573,201.854 328.24,207.354 323.5,212C 302.914,227.667 279.581,236.667 253.5,239C 214.149,245.395 175.815,241.728 138.5,228C 126.388,223.038 116.221,215.538 108,205.5C 105.682,202.531 104.182,199.198 103.5,195.5C 103.172,183.322 103.505,171.322 104.5,159.5C 109.903,170.07 117.903,178.236 128.5,184C 146.654,192.455 165.654,197.955 185.5,200.5C 194.114,202.024 202.947,202.691 212,202.5C 218.343,202.5 224.509,202.166 230.5,201.5C 254.773,201.098 278.106,196.264 300.5,187C 311.333,182.831 320.5,176.331 328,167.5C 329.826,164.218 331.326,160.884 332.5,157.5 Z"/></g>
<g><path style="opacity:1" fill="#7d8ea4" d="M 333.5,195.5 C 333.829,182.656 333.495,169.989 332.5,157.5C 332.281,156.325 332.614,155.325 333.5,154.5C 334.826,168.328 334.826,181.994 333.5,195.5 Z"/></g>
<g><path style="opacity:1" fill="#6e7f98" d="M 7.5,167.5 C 7.58037,173.478 6.58037,179.145 4.5,184.5C 4.3671,178.511 5.3671,172.844 7.5,167.5 Z"/></g>
<g><path style="opacity:1" fill="#8998ac" d="M 169.5,183.5 C 178.014,184.531 186.347,185.864 194.5,187.5C 185.824,187.453 177.491,186.12 169.5,183.5 Z"/></g>
<g><path style="opacity:1" fill="#9aa6b8" d="M 185.5,200.5 C 200.484,201.333 215.484,201.666 230.5,201.5C 224.509,202.166 218.343,202.5 212,202.5C 202.947,202.691 194.114,202.024 185.5,200.5 Z"/></g>
<g><path style="opacity:1" fill="#fcfdfd" d="M 332.5,211.5 C 333.495,223.322 333.828,235.322 333.5,247.5C 329.291,260.547 320.957,270.047 308.5,276C 283.903,287.954 257.903,294.12 230.5,294.5C 216.826,294.406 203.159,294.073 189.5,293.5C 182.082,291.404 174.416,290.071 166.5,289.5C 143.966,286.317 124.799,276.65 109,260.5C 106.053,256.61 104.22,252.277 103.5,247.5C 103.172,235.655 103.505,223.988 104.5,212.5C 108.486,221.658 114.82,228.825 123.5,234C 152.601,249.557 183.767,256.724 217,255.5C 226.852,255.365 236.685,254.865 246.5,254C 255.832,252.389 265.165,250.889 274.5,249.5C 277.916,249.472 280.916,248.472 283.5,246.5C 301.565,242.224 316.732,233.224 329,219.5C 330.454,216.929 331.62,214.262 332.5,211.5 Z"/></g>
<g><path style="opacity:1" fill="#bac3ce" d="M 104.5,212.5 C 103.505,223.988 103.172,235.655 103.5,247.5C 102.34,235.007 102.173,222.34 103,209.5C 103.513,210.527 104.013,211.527 104.5,212.5 Z"/></g>
<g><path style="opacity:1" fill="#8090a6" d="M 333.5,247.5 C 333.828,235.322 333.495,223.322 332.5,211.5C 332.281,210.325 332.614,209.325 333.5,208.5C 334.825,221.661 334.825,234.661 333.5,247.5 Z"/></g>
<g><path style="opacity:1" fill="#a1acbc" d="M 283.5,246.5 C 280.916,248.472 277.916,249.472 274.5,249.5C 277.146,247.747 280.146,246.747 283.5,246.5 Z"/></g>
<g><path style="opacity:1" fill="#9fabbb" d="M 3.5,243.5 C 4.91313,248.63 5.91313,253.963 6.5,259.5C 5.88258,259.389 5.38258,259.056 5,258.5C 4.08776,253.536 3.58776,248.536 3.5,243.5 Z"/></g>
<g><path style="opacity:1" fill="#b6c0cc" d="M 104.5,266.5 C 103.505,278.322 103.172,290.322 103.5,302.5C 102.34,289.34 102.173,276.006 103,262.5C 103.791,263.745 104.291,265.078 104.5,266.5 Z"/></g>
<g><path style="opacity:1" fill="#fcfcfd" d="M 332.5,264.5 C 333.495,276.989 333.829,289.656 333.5,302.5C 329.961,311.882 323.961,319.382 315.5,325C 303.269,332.354 290.269,337.854 276.5,341.5C 267.919,342.55 259.585,344.216 251.5,346.5C 219.479,350.51 187.812,348.677 156.5,341C 143.268,337.216 130.935,331.55 119.5,324C 112.062,318.396 106.729,311.229 103.5,302.5C 103.172,290.322 103.505,278.322 104.5,266.5C 110.338,277.171 118.672,285.338 129.5,291C 146.024,298.897 163.358,304.064 181.5,306.5C 198.08,309.517 214.747,310.184 231.5,308.5C 255.346,307.621 278.346,302.788 300.5,294C 311.565,288.887 321.065,281.72 329,272.5C 330.454,269.929 331.62,267.262 332.5,264.5 Z"/></g>
<g><path style="opacity:1" fill="#7e8ea4" d="M 333.5,302.5 C 333.829,289.656 333.495,276.989 332.5,264.5C 332.281,263.325 332.614,262.325 333.5,261.5C 334.826,275.328 334.826,288.994 333.5,302.5 Z"/></g>
<g><path style="opacity:1" fill="#d2d6dc" d="M 427.5,271.5 C 428.595,276.43 429.261,281.43 429.5,286.5C 427.05,286.298 424.717,286.631 422.5,287.5C 423.796,281.95 425.463,276.617 427.5,271.5 Z"/></g>
<g><path style="opacity:1" fill="#bcc4d0" d="M 166.5,289.5 C 174.416,290.071 182.082,291.404 189.5,293.5C 181.507,293.335 173.84,292.002 166.5,289.5 Z"/></g>
<g><path style="opacity:1" fill="#96a3b5" d="M 189.5,293.5 C 203.159,294.073 216.826,294.406 230.5,294.5C 225.511,295.166 220.344,295.499 215,295.5C 206.287,295.618 197.787,294.952 189.5,293.5 Z"/></g>
<g><path style="opacity:1" fill="#72839c" d="M 181.5,306.5 C 198.133,307.829 214.8,308.496 231.5,308.5C 214.747,310.184 198.08,309.517 181.5,306.5 Z"/></g>
<g><path style="opacity:1" fill="#f4f4f4" d="M 60.5,68.5 C 34.1881,96.7859 16.5214,129.786 7.5,167.5C 5.3671,172.844 4.3671,178.511 4.5,184.5C 2.95914,195.121 2.29247,205.955 2.5,217C 2.54289,225.866 2.87622,234.699 3.5,243.5C 3.58776,248.536 4.08776,253.536 5,258.5C 5.38258,259.056 5.88258,259.389 6.5,259.5C 16.1595,306.504 38.4929,346.171 73.5,378.5C 72.4168,378.461 71.4168,378.127 70.5,377.5C 69.5159,380.428 69.1826,383.428 69.5,386.5C 66.1667,386.5 62.8333,386.5 59.5,386.5C 59.5,383.5 59.5,380.5 59.5,377.5C 56.1667,377.5 52.8333,377.5 49.5,377.5C 49.5,380.5 49.5,383.5 49.5,386.5C 46.1667,386.5 42.8333,386.5 39.5,386.5C 39.5,383.5 39.5,380.5 39.5,377.5C 36.1667,377.5 32.8333,377.5 29.5,377.5C 29.5,380.5 29.5,383.5 29.5,386.5C 26.1667,386.5 22.8333,386.5 19.5,386.5C 19.5,383.5 19.5,380.5 19.5,377.5C 16.1667,377.5 12.8333,377.5 9.5,377.5C 9.5,380.5 9.5,383.5 9.5,386.5C 6.16667,386.5 2.83333,386.5 -0.5,386.5C -0.5,283.167 -0.5,179.833 -0.5,76.5C 2.83333,76.5 6.16667,76.5 9.5,76.5C 9.5,73.5 9.5,70.5 9.5,67.5C 12.8333,67.5 16.1667,67.5 19.5,67.5C 19.5,70.5 19.5,73.5 19.5,76.5C 22.8333,76.5 26.1667,76.5 29.5,76.5C 29.5,73.5 29.5,70.5 29.5,67.5C 32.8333,67.5 36.1667,67.5 39.5,67.5C 39.5,70.5 39.5,73.5 39.5,76.5C 42.8333,76.5 46.1667,76.5 49.5,76.5C 49.5,73.5 49.5,70.5 49.5,67.5C 53.2693,67.244 56.9359,67.5773 60.5,68.5 Z"/></g>
<g><path style="opacity:1" fill="#f5f5f5" d="M 434.5,77.5 C 434.5,196.833 434.5,316.167 434.5,435.5C 289.5,435.5 144.5,435.5 -0.5,435.5C -0.5,429.167 -0.5,422.833 -0.5,416.5C 2.83333,416.5 6.16667,416.5 9.5,416.5C 9.5,413.5 9.5,410.5 9.5,407.5C 12.8333,407.5 16.1667,407.5 19.5,407.5C 19.5,410.5 19.5,413.5 19.5,416.5C 22.8333,416.5 26.1667,416.5 29.5,416.5C 29.5,413.5 29.5,410.5 29.5,407.5C 32.8333,407.5 36.1667,407.5 39.5,407.5C 39.5,410.5 39.5,413.5 39.5,416.5C 42.8333,416.5 46.1667,416.5 49.5,416.5C 49.5,413.5 49.5,410.5 49.5,407.5C 52.8333,407.5 56.1667,407.5 59.5,407.5C 59.5,410.5 59.5,413.5 59.5,416.5C 62.8333,416.5 66.1667,416.5 69.5,416.5C 69.5,413.5 69.5,410.5 69.5,407.5C 72.8333,407.5 76.1667,407.5 79.5,407.5C 79.5,410.5 79.5,413.5 79.5,416.5C 82.8333,416.5 86.1667,416.5 89.5,416.5C 89.5,413.5 89.5,410.5 89.5,407.5C 92.8333,407.5 96.1667,407.5 99.5,407.5C 99.5,410.5 99.5,413.5 99.5,416.5C 102.833,416.5 106.167,416.5 109.5,416.5C 109.06,412.821 109.727,409.488 111.5,406.5C 150.88,427.68 192.88,436.513 237.5,433C 328.121,421.203 389.787,372.703 422.5,287.5C 424.717,286.631 427.05,286.298 429.5,286.5C 429.261,281.43 428.595,276.43 427.5,271.5C 429.49,261.87 431.324,252.204 433,242.5C 433.167,233.667 433.333,224.833 433.5,216C 434.669,196.357 432.336,177.191 426.5,158.5C 425.943,153.835 424.61,149.502 422.5,145.5C 414.629,123.087 403.629,102.421 389.5,83.5C 389.5,81.5 389.5,79.5 389.5,77.5C 392.833,77.5 396.167,77.5 399.5,77.5C 399.5,80.5 399.5,83.5 399.5,86.5C 402.833,86.5 406.167,86.5 409.5,86.5C 409.5,83.5 409.5,80.5 409.5,77.5C 412.833,77.5 416.167,77.5 419.5,77.5C 419.5,80.5 419.5,83.5 419.5,86.5C 422.833,86.5 426.167,86.5 429.5,86.5C 429.5,83.5 429.5,80.5 429.5,77.5C 431.167,77.5 432.833,77.5 434.5,77.5 Z"/></g>
<g><path style="opacity:1" fill="#6e7f99" d="M 276.5,341.5 C 276.082,342.222 275.416,342.722 274.5,343C 266.889,344.654 259.222,345.821 251.5,346.5C 259.585,344.216 267.919,342.55 276.5,341.5 Z"/></g>
<g><path style="opacity:1" fill="#1b2027" d="M 157.5,373.5 C 196.501,373.333 235.501,373.5 274.5,374C 286.868,378.244 290.368,386.411 285,398.5C 282.519,402.314 279.019,404.481 274.5,405C 235.5,405.667 196.5,405.667 157.5,405C 147.304,399.411 144.47,391.244 149,380.5C 151.441,377.546 154.275,375.213 157.5,373.5 Z"/></g>
<g><path style="opacity:1" fill="#edeeee" d="M 165.5,381.5 C 167.912,381.694 168.912,383.027 168.5,385.5C 167.167,385.5 165.833,385.5 164.5,385.5C 164.433,384.041 164.766,382.708 165.5,381.5 Z"/></g>
<g><path style="opacity:1" fill="#b2b4b7" d="M 160.5,383.5 C 162.337,383.639 162.67,384.306 161.5,385.5C 160.702,385.043 160.369,384.376 160.5,383.5 Z"/></g>
<g><path style="opacity:1" fill="#a3a5a8" d="M 170.5,382.5 C 174.06,384.283 174.06,385.283 170.5,385.5C 170.5,384.5 170.5,383.5 170.5,382.5 Z"/></g>
<g><path style="opacity:1" fill="#fcfcfc" d="M 73.5,378.5 C 78.5,382.5 83.5,386.5 88.5,390.5C 89.1495,392.435 89.4828,394.435 89.5,396.5C 86.1667,396.5 82.8333,396.5 79.5,396.5C 79.5,393.5 79.5,390.5 79.5,387.5C 76.1667,387.5 72.8333,387.5 69.5,387.5C 69.5,390.5 69.5,393.5 69.5,396.5C 66.1667,396.5 62.8333,396.5 59.5,396.5C 59.5,393.5 59.5,390.5 59.5,387.5C 56.1667,387.5 52.8333,387.5 49.5,387.5C 49.5,390.5 49.5,393.5 49.5,396.5C 46.1667,396.5 42.8333,396.5 39.5,396.5C 39.5,393.5 39.5,390.5 39.5,387.5C 36.1667,387.5 32.8333,387.5 29.5,387.5C 29.5,390.5 29.5,393.5 29.5,396.5C 26.1667,396.5 22.8333,396.5 19.5,396.5C 19.5,393.5 19.5,390.5 19.5,387.5C 16.1667,387.5 12.8333,387.5 9.5,387.5C 9.5,390.5 9.5,393.5 9.5,396.5C 6.16667,396.5 2.83333,396.5 -0.5,396.5C -0.5,393.167 -0.5,389.833 -0.5,386.5C 2.83333,386.5 6.16667,386.5 9.5,386.5C 9.5,383.5 9.5,380.5 9.5,377.5C 12.8333,377.5 16.1667,377.5 19.5,377.5C 19.5,380.5 19.5,383.5 19.5,386.5C 22.8333,386.5 26.1667,386.5 29.5,386.5C 29.5,383.5 29.5,380.5 29.5,377.5C 32.8333,377.5 36.1667,377.5 39.5,377.5C 39.5,380.5 39.5,383.5 39.5,386.5C 42.8333,386.5 46.1667,386.5 49.5,386.5C 49.5,383.5 49.5,380.5 49.5,377.5C 52.8333,377.5 56.1667,377.5 59.5,377.5C 59.5,380.5 59.5,383.5 59.5,386.5C 62.8333,386.5 66.1667,386.5 69.5,386.5C 69.1826,383.428 69.5159,380.428 70.5,377.5C 71.4168,378.127 72.4168,378.461 73.5,378.5 Z"/></g>
<g><path style="opacity:1" fill="#efeff0" d="M 158.5,387.5 C 159.5,387.5 160.5,387.5 161.5,387.5C 161.5,388.833 161.5,390.167 161.5,391.5C 160.5,391.5 159.5,391.5 158.5,391.5C 158.5,390.167 158.5,388.833 158.5,387.5 Z"/></g>
<g><path style="opacity:1" fill="#f8f8f8" d="M 163.5,387.5 C 165.5,387.5 167.5,387.5 169.5,387.5C 169.5,388.833 169.5,390.167 169.5,391.5C 167.5,391.5 165.5,391.5 163.5,391.5C 163.5,390.167 163.5,388.833 163.5,387.5 Z"/></g>
<g><path style="opacity:1" fill="#f0f0f1" d="M 171.5,387.5 C 172.5,387.5 173.5,387.5 174.5,387.5C 174.5,388.833 174.5,390.167 174.5,391.5C 173.5,391.5 172.5,391.5 171.5,391.5C 171.5,390.167 171.5,388.833 171.5,387.5 Z"/></g>
<g><path style="opacity:1" fill="#d6d7d8" d="M 234.5,388.5 C 232.891,388.906 231.557,388.906 230.5,388.5C 231.958,387.218 233.292,387.218 234.5,388.5 Z"/></g>
<g><path style="opacity:1" fill="#21252c" d="M 197.5,388.5 C 197.5,390.167 197.5,391.833 197.5,393.5C 196.5,393.5 195.5,393.5 194.5,393.5C 194.5,391.833 194.5,390.167 194.5,388.5C 195.5,388.5 196.5,388.5 197.5,388.5 Z"/></g>
<g><path style="opacity:1" fill="#c8cacb" d="M 218.5,385.5 C 219.83,386.832 221.497,387.665 223.5,388C 225.825,393.154 224.158,395.321 218.5,394.5C 218.5,391.5 218.5,388.5 218.5,385.5 Z"/></g>
<g><path style="opacity:1" fill="#b8babc" d="M 237.5,387.5 C 241.162,386.637 243.328,387.97 244,391.5C 245,390.167 246,388.833 247,387.5C 246.849,390.943 245.683,394.11 243.5,397C 242.833,397.667 242.167,397.667 241.5,397C 243.928,394.032 243.595,391.198 240.5,388.5C 238.63,396.299 237.63,395.965 237.5,387.5 Z"/></g>
<g><path style="opacity:1" fill="#21252c" d="M 262.5,388.5 C 262.5,390.167 262.5,391.833 262.5,393.5C 261.5,393.5 260.5,393.5 259.5,393.5C 259.5,391.833 259.5,390.167 259.5,388.5C 260.5,388.5 261.5,388.5 262.5,388.5 Z"/></g>
<g><path style="opacity:1" fill="#ced0d1" d="M 265.5,387.5 C 268.5,387.5 271.5,387.5 274.5,387.5C 274.663,389.857 274.497,392.19 274,394.5C 272.891,386.715 271.558,386.715 270,394.5C 268.891,386.715 267.558,386.715 266,394.5C 265.503,392.19 265.337,389.857 265.5,387.5 Z"/></g>
<g><path style="opacity:1" fill="#adafb2" d="M 197.5,388.5 C 196.5,388.5 195.5,388.5 194.5,388.5C 194.5,390.167 194.5,391.833 194.5,393.5C 195.5,393.5 196.5,393.5 197.5,393.5C 196.292,394.782 194.958,394.782 193.5,393.5C 193.099,391.566 192.099,390.066 190.5,389C 192.941,387.608 195.274,387.441 197.5,388.5 Z"/></g>
<g><path style="opacity:1" fill="#1f232a" d="M 220.5,388.5 C 221.649,388.791 222.316,389.624 222.5,391C 221.706,394.122 220.706,394.122 219.5,391C 219.743,390.098 220.077,389.265 220.5,388.5 Z"/></g>
<g><path style="opacity:1" fill="#cdced0" d="M 225.5,387.5 C 229.554,387.21 230.054,387.877 227,389.5C 226.667,391.167 226.333,392.833 226,394.5C 225.503,392.19 225.337,389.857 225.5,387.5 Z"/></g>
<g><path style="opacity:1" fill="#adafb2" d="M 262.5,388.5 C 261.5,388.5 260.5,388.5 259.5,388.5C 259.5,390.167 259.5,391.833 259.5,393.5C 260.5,393.5 261.5,393.5 262.5,393.5C 261.292,394.782 259.958,394.782 258.5,393.5C 258.099,391.566 257.099,390.066 255.5,389C 257.941,387.608 260.274,387.441 262.5,388.5 Z"/></g>
<g><path style="opacity:1" fill="#bbbdbf" d="M 200.5,387.5 C 206.235,386.821 207.902,389.155 205.5,394.5C 203.977,386.679 202.477,386.679 201,394.5C 200.503,392.19 200.337,389.857 200.5,387.5 Z"/></g>
<g><path style="opacity:1" fill="#bcbec0" d="M 197.5,388.5 C 200.167,390.167 200.167,391.833 197.5,393.5C 197.5,391.833 197.5,390.167 197.5,388.5 Z"/></g>
<g><path style="opacity:1" fill="#cecfd1" d="M 234.5,388.5 C 235.224,390.218 235.891,392.052 236.5,394C 234.939,394.188 234.272,393.355 234.5,391.5C 231.282,391.651 230.949,392.484 233.5,394C 231.681,394.783 230.348,394.283 229.5,392.5C 231.363,391.311 233.03,389.978 234.5,388.5 Z"/></g>
<g><path style="opacity:1" fill="#bcbec0" d="M 262.5,388.5 C 265.167,390.167 265.167,391.833 262.5,393.5C 262.5,391.833 262.5,390.167 262.5,388.5 Z"/></g>
<g><path style="opacity:1" fill="#f3f3f3" d="M 164.5,393.5 C 165.833,393.5 167.167,393.5 168.5,393.5C 167.304,398.757 165.97,398.757 164.5,393.5 Z"/></g>
<g><path style="opacity:1" fill="#acaeb1" d="M 190.5,392.5 C 191.043,392.56 191.376,392.893 191.5,393.5C 190.277,394.614 188.944,394.781 187.5,394C 188.737,393.768 189.737,393.268 190.5,392.5 Z"/></g>
<g><path style="opacity:1" fill="#acaeb1" d="M 255.5,392.5 C 256.043,392.56 256.376,392.893 256.5,393.5C 255.277,394.614 253.944,394.781 252.5,394C 253.737,393.768 254.737,393.268 255.5,392.5 Z"/></g>
<g><path style="opacity:1" fill="#a6a9ab" d="M 160.5,393.5 C 162.225,393.843 162.725,394.843 162,396.5C 160.961,395.756 160.461,394.756 160.5,393.5 Z"/></g>
<g><path style="opacity:1" fill="#84878b" d="M 171.5,393.5 C 172.688,395.496 172.021,396.329 169.5,396C 170.381,395.292 171.047,394.458 171.5,393.5 Z"/></g>
<g><path style="opacity:1" fill="#eff0f0" d="M 88.5,390.5 C 91.7198,392.603 94.7198,394.936 97.5,397.5C 94.8333,397.5 92.1667,397.5 89.5,397.5C 89.5,400.5 89.5,403.5 89.5,406.5C 86.1667,406.5 82.8333,406.5 79.5,406.5C 79.5,403.5 79.5,400.5 79.5,397.5C 76.1667,397.5 72.8333,397.5 69.5,397.5C 69.5,400.5 69.5,403.5 69.5,406.5C 66.1667,406.5 62.8333,406.5 59.5,406.5C 59.5,403.5 59.5,400.5 59.5,397.5C 56.1667,397.5 52.8333,397.5 49.5,397.5C 49.5,400.5 49.5,403.5 49.5,406.5C 46.1667,406.5 42.8333,406.5 39.5,406.5C 39.5,403.5 39.5,400.5 39.5,397.5C 36.1667,397.5 32.8333,397.5 29.5,397.5C 29.5,400.5 29.5,403.5 29.5,406.5C 26.1667,406.5 22.8333,406.5 19.5,406.5C 19.5,403.5 19.5,400.5 19.5,397.5C 16.1667,397.5 12.8333,397.5 9.5,397.5C 9.5,400.5 9.5,403.5 9.5,406.5C 6.16667,406.5 2.83333,406.5 -0.5,406.5C -0.5,403.167 -0.5,399.833 -0.5,396.5C 2.83333,396.5 6.16667,396.5 9.5,396.5C 9.5,393.5 9.5,390.5 9.5,387.5C 12.8333,387.5 16.1667,387.5 19.5,387.5C 19.5,390.5 19.5,393.5 19.5,396.5C 22.8333,396.5 26.1667,396.5 29.5,396.5C 29.5,393.5 29.5,390.5 29.5,387.5C 32.8333,387.5 36.1667,387.5 39.5,387.5C 39.5,390.5 39.5,393.5 39.5,396.5C 42.8333,396.5 46.1667,396.5 49.5,396.5C 49.5,393.5 49.5,390.5 49.5,387.5C 52.8333,387.5 56.1667,387.5 59.5,387.5C 59.5,390.5 59.5,393.5 59.5,396.5C 62.8333,396.5 66.1667,396.5 69.5,396.5C 69.5,393.5 69.5,390.5 69.5,387.5C 72.8333,387.5 76.1667,387.5 79.5,387.5C 79.5,390.5 79.5,393.5 79.5,396.5C 82.8333,396.5 86.1667,396.5 89.5,396.5C 89.4828,394.435 89.1495,392.435 88.5,390.5 Z"/></g>
<g><path style="opacity:1" fill="#fcfcfc" d="M 97.5,397.5 C 102.203,400.514 106.87,403.514 111.5,406.5C 109.727,409.488 109.06,412.821 109.5,416.5C 106.167,416.5 102.833,416.5 99.5,416.5C 99.5,413.5 99.5,410.5 99.5,407.5C 96.1667,407.5 92.8333,407.5 89.5,407.5C 89.5,410.5 89.5,413.5 89.5,416.5C 86.1667,416.5 82.8333,416.5 79.5,416.5C 79.5,413.5 79.5,410.5 79.5,407.5C 76.1667,407.5 72.8333,407.5 69.5,407.5C 69.5,410.5 69.5,413.5 69.5,416.5C 66.1667,416.5 62.8333,416.5 59.5,416.5C 59.5,413.5 59.5,410.5 59.5,407.5C 56.1667,407.5 52.8333,407.5 49.5,407.5C 49.5,410.5 49.5,413.5 49.5,416.5C 46.1667,416.5 42.8333,416.5 39.5,416.5C 39.5,413.5 39.5,410.5 39.5,407.5C 36.1667,407.5 32.8333,407.5 29.5,407.5C 29.5,410.5 29.5,413.5 29.5,416.5C 26.1667,416.5 22.8333,416.5 19.5,416.5C 19.5,413.5 19.5,410.5 19.5,407.5C 16.1667,407.5 12.8333,407.5 9.5,407.5C 9.5,410.5 9.5,413.5 9.5,416.5C 6.16667,416.5 2.83333,416.5 -0.5,416.5C -0.5,413.167 -0.5,409.833 -0.5,406.5C 2.83333,406.5 6.16667,406.5 9.5,406.5C 9.5,403.5 9.5,400.5 9.5,397.5C 12.8333,397.5 16.1667,397.5 19.5,397.5C 19.5,400.5 19.5,403.5 19.5,406.5C 22.8333,406.5 26.1667,406.5 29.5,406.5C 29.5,403.5 29.5,400.5 29.5,397.5C 32.8333,397.5 36.1667,397.5 39.5,397.5C 39.5,400.5 39.5,403.5 39.5,406.5C 42.8333,406.5 46.1667,406.5 49.5,406.5C 49.5,403.5 49.5,400.5 49.5,397.5C 52.8333,397.5 56.1667,397.5 59.5,397.5C 59.5,400.5 59.5,403.5 59.5,406.5C 62.8333,406.5 66.1667,406.5 69.5,406.5C 69.5,403.5 69.5,400.5 69.5,397.5C 72.8333,397.5 76.1667,397.5 79.5,397.5C 79.5,400.5 79.5,403.5 79.5,406.5C 82.8333,406.5 86.1667,406.5 89.5,406.5C 89.5,403.5 89.5,400.5 89.5,397.5C 92.1667,397.5 94.8333,397.5 97.5,397.5 Z"/></g>
<g><path style="opacity:1" fill="#2a2b2a" d="M -0.5,435.5 C 144.5,435.5 289.5,435.5 434.5,435.5C 434.5,436.167 434.5,436.833 434.5,437.5C 289.5,437.5 144.5,437.5 -0.5,437.5C -0.5,436.833 -0.5,436.167 -0.5,435.5 Z"/></g>
</svg>
